# AST/ASF file generated using VICON BodyLanguage
# -----------------------------------------------
:version 1.10
:name VICON
:units
  mass 1.0
  length 0.45
  angle deg
:documentation
   .ast/.asf automatically generated from VICON data using
   VICON BodyBuilder and BodyLanguage model FoxedUp or BRILLIANT.MOD
:root
   order TX TY TZ RX RY RZ
   axis XYZ
   position 0 0 0  
   orientation 0 0 0 
:bonedata
  begin
     id 1 
     name lhipjoint
     direction 0.584852 -0.759097 0.285867 
     length 2.43633 
     axis 0 0 0  XYZ
  end
  begin
     id 2 
     name lfemur
     direction 0.34202 -0.939693 0  
     length 7.14704  
     axis 0 0 20  XYZ
    dof rx ry rz
    limits (-160.0 20.0)
           (-70.0 70.0)
           (-60.0 70.0)
  end
  begin
     id 3 
     name ltibia
     direction 0.342022 -0.939692 0   
     length 7.68483   
     axis 0 0 20   XYZ
    dof rx
    limits (-10.0 170.0)
  end
  begin
     id 4 
     name lfoot
     direction 0.0999605 -0.274639 0.956337   
     length 2.40452   
     axis -90 7.62852e-016 20   XYZ
    dof rx rz
    limits (-45.0 90.0)
           (-70.0 20.0)
  end
  begin
     id 5 
     name ltoes
     direction 1.53468e-011 -4.21881e-011 1   
     length 1.19837   
     axis -90 7.62852e-016 20   XYZ
    dof rx
    limits (-90.0 20.0)
  end
  begin
     id 6 
     name rhipjoint
     direction -0.569886 -0.769002 0.289597   
     length 2.40495  
     axis 0 0 0  XYZ 
  end
  begin
     id 7 
     name rfemur
     direction -0.34202 -0.939693 0   
     length 7.45086   
     axis 0 0 -20   XYZ
    dof rx ry rz
    limits (-160.0 20.0)
           (-70.0 70.0)
           (-70.0 60.0)
  end
  begin
     id 8 
     name rtibia
     direction -0.34202 -0.939693 0   
     length 7.76831   
     axis 0 0 -20   XYZ
    dof rx
    limits (-10.0 170.0)
 end
 begin
     id 9 
     name rfoot
     direction -0.0798572 -0.219406 0.97236   
     length 2.35911  
     axis -90 -7.62852e-016 -20   XYZ
    dof rx rz
    limits (-45.0 90.0)
           (-20.0 70.0)
  end
  begin
     id 10 
     name rtoes
     direction -1.53469e-011 -4.21728e-011 1   
     length 1.18261   
     axis -90 -7.62852e-016 -20   XYZ
    dof rx
    limits (-90.0 20.0)
  end
  begin
     id 11 
     name lowerback
     direction 0.0242088 0.999437 0.0232389   
     length 2.1561   
     axis 0 0 0   XYZ
    dof rx ry rz
    limits (-20.0 45.0)
           (-30.0 30.0)
           (-30.0 30.0)
  end
  begin
     id 12 
     name upperback
     direction -0.0356893 0.999013 -0.0264323   
     length 2.14431   
     axis 0 0 0   XYZ
    dof rx ry rz
    limits (-20.0 45.0)
           (-30.0 30.0)
           (-30.0 30.0)
  end
  begin
     id 13 
     name thorax
     direction -0.0472163 0.998194 -0.0371284   
     length 2.16169   
     axis 0 0 0   XYZ
    dof rx ry rz
    limits (-20.0 45.0)
           (-30.0 30.0)
           (-30.0 30.0)
  end
  begin
     id 14 
     name lowerneck
     direction 0.00863244 0.999921 0.00911972   
     length 1.58651   
     axis 0 0 0   XYZ
    dof rx ry rz
    limits (-20.0 45.0)
           (-30.0 30.0)
           (-30.0 30.0)
  end
  begin
     id 15 
     name upperneck
     direction 0.149523 0.979068 -0.138086   
     length 1.57486   
     axis 0 0 0   XYZ
    dof rx ry rz
    limits (-20.0 45.0)
           (-30.0 30.0)
           (-30.0 30.0)
  end
  begin
     id 16
     name head
     direction 0.0445219 0.997708 -0.0509576  
     length 1.6019  
     axis 0 0 0   XYZ
    dof rx ry rz
    limits (-20.0 45.0)
           (-30.0 30.0)
           (-30.0 30.0)
  end
  begin
     id 17 
     name lclavicle
     direction 0.911271 0.381667 -0.154644  
     length 3.80848  
     axis 0 0 0   XYZ
    dof ry rz
    limits (-20.0 10.0)
           (0.0 20.0)
  end
  begin
     id 18 
     name lhumerus
     direction 1 -4.49003e-011 2.1308e-027   
     length 5.19069   
     axis 180 -30 -90   XYZ
    dof rx ry rz
    limits (-60.0 90.0)
           (-90.0 90.0)
           (-90.0 90.0)
  end
  begin
     id 19
     name lradius
     direction 1 -4.48914e-011 4.01554e-027   
     length 3.30016   
     axis 180 -30 -90   XYZ
    dof rx
    limits (-10.0 170.0)
  end
  begin
     id 20
     name lwrist
     direction 1 -4.49003e-011 1.1934e-026   
     length 1.65008   
     axis -8.46377e-015 90 90   XYZ
    dof ry
    limits (-180.0 0.0)
 end
  begin
     id 21 
     name lhand
     direction 1 -4.49034e-011 2.38659e-026   
     length 0.707698   
     axis -1.52313e-014 90 90   XYZ
    dof rx rz
    limits (-90.0 90.0)
           (-45.0 45.0)
  end
  begin
     id 22 
     name lfingers
     direction 1 -4.48691e-011 4.77775e-026   
     length 0.570564   
     axis -3.04623e-014 90 90   XYZ
    dof rx
    limits (0.0 90.0)
  end
  begin
     id 23
     name lthumb
     direction 0.707107 -6.34832e-011 0.707107   
     length 0.819219   
     axis -90 45 -1.62303e-014   XYZ
    dof rx rz
    limits (-45.0 45.0)
           (-45.0 45.0)
  end
  begin
     id 24 
     name rclavicle
     direction -0.815579 0.573708 -0.0754329   
     length 3.54371  
     axis 0 0 0   XYZ 
    dof ry rz
    limits (-10.0 20.0)
           (-20.0 0.0)
  end
  begin
     id 25 
     name rhumerus
     direction -1 -4.48956e-011 3.05351e-028  
     length 5.23924   
     axis 180 30 90   XYZ
    dof rx ry rz
    limits (-90.0 60.0)
           (-90.0 90.0)
           (-90.0 90.0)
  end
  begin
     id 26 
     name rradius
     direction -1 -4.49013e-011 3.53849e-027   
     length 3.32953   
     axis 180 30 90   XYZ
    dof rx
    limits (-10.0 170.0)
  end
  begin
     id 27 
     name rwrist
     direction -1 -4.48901e-011 1.19374e-026   
     length 1.66477   
     axis -8.46377e-015 -90 -90   XYZ
    dof ry
    limits (-180.0 0.0)
  end
  begin
     id 28
     name rhand
     direction -1 -4.48877e-011 2.38764e-026   
     length 0.607414   
     axis -1.52313e-014 -90 -90   XYZ
    dof rx rz
    limits (-90.0 90.0)
           (-45.0 45.0)
  end
  begin
     id 29
     name rfingers
     direction -1 -4.48882e-011 4.77521e-026   
     length 0.489712   
     axis -3.04623e-014 -90 -90   XYZ
    dof rx
    limits (0.0 90.0)
  end
  begin
     id 30
     name rthumb
     direction -0.707107 -6.34974e-011 0.707107   
     length 0.703132   
     axis -90 -45 1.62303e-014   XYZ
    dof rx rz
    limits (-45.0 45.0)
           (-45.0 45.0)
  end
:hierarchy
  begin
    root lhipjoint rhipjoint lowerback
    lhipjoint lfemur
    lfemur ltibia
    ltibia lfoot
    lfoot ltoes
    rhipjoint rfemur
    rfemur rtibia
    rtibia rfoot
    rfoot rtoes
    lowerback upperback
    upperback thorax
    thorax lowerneck lclavicle rclavicle
    lowerneck upperneck
    upperneck head
    lclavicle lhumerus
    lhumerus lradius
    lradius lwrist
    lwrist lhand lthumb
    lhand lfingers
    rclavicle rhumerus
    rhumerus rradius
    rradius rwrist
    rwrist rhand rthumb
    rhand rfingers
  end

#!OML:ASF E:\VariousWalksJay\Project 1\Capture day 1\Session 1\Actor2.ASF
:FULLY-SPECIFIED
:DEGREES
249
root 23.6348 16.1369 45.9446 168.875 -52.0679 -174.917
lowerback -13.7505 0.69324 -0.365228
upperback -2.85995 0.899811 -6.4792
thorax 4.79219 0.295463 -6.53898
lowerneck -15.0307 -8.28943 -8.00437
upperneck 3.5269 -12.276 20.2518
head 5.42133 -5.40525 6.44894
rclavicle -7.15625e-015 -2.54444e-014
rhumerus -35.7022 46.6267 -98.5236
rradius 72.3967
rwrist -11.8521
rhand 20.3101 -11.7331
rfingers 7.12502
rthumb 44.8238 -35.3017
lclavicle -7.15625e-015 -2.54444e-014
lhumerus -32.9307 -13.5507 75.9101
lradius 33.1417
lwrist 8.31925
lhand -13.9931 -4.54552
lfingers 7.12502
lthumb 12.1358 25.0825
rfemur -13.2887 1.49703 22.1712
rtibia 60.677
rfoot -13.3167 4.23886
rtoes -22.8848
lfemur 10.5499 8.85516 -15.4513
ltibia 25.2732
lfoot -28.2523 23.0168
ltoes -17.6138
250
root 23.616 16.1402 45.9365 169.343 -51.6197 -175.482
lowerback -13.67 0.535556 -0.56161
upperback -2.75068 0.724923 -6.35178
thorax 4.83974 0.211975 -6.31767
lowerneck -14.9761 -8.38715 -7.92017
upperneck 2.82364 -12.3582 20.3856
head 5.21661 -5.48859 6.46912
rclavicle 9.85972e-014 3.81667e-014
rhumerus -34.5722 46.8974 -97.5426
rradius 73.3651
rwrist -11.9065
rhand 20.4562 -11.6979
rfingers 7.12502
rthumb 44.9598 -35.2133
lclavicle 9.85972e-014 3.81667e-014
lhumerus -33.0621 -12.9638 75.5768
lradius 32.3055
lwrist 8.11247
lhand -13.6997 -4.29963
lfingers 7.12502
lthumb 12.4187 25.3115
rfemur -15.0698 2.67479 21.6988
rtibia 63.4203
rfoot -10.3621 5.65947
rtoes -21.4791
lfemur 11.1911 8.99554 -15.784
ltibia 24.4549
lfoot -28.2561 22.8779
ltoes -17.0683
251
root 23.6025 16.1447 45.9286 169.827 -51.2178 -176.074
lowerback -13.5193 0.335237 -0.799937
upperback -2.60971 0.49964 -6.24609
thorax 4.87887 0.103415 -6.1043
lowerneck -14.9213 -8.4689 -7.84075
upperneck 2.15277 -12.4254 20.5302
head 5.02155 -5.56459 6.49658
rclavicle -8.98507e-014 5.24792e-014
rhumerus -33.4897 46.9848 -96.6541
rradius 74.3
rwrist -11.8422
rhand 20.4831 -11.591
rfingers 7.12502
rthumb 44.9848 -35.0966
lclavicle -8.98507e-014 5.24792e-014
lhumerus -33.0007 -12.5207 75.3525
lradius 31.3893
lwrist 7.88722
lhand -13.379 -4.15767
lfingers 7.12502
lthumb 12.7278 25.4344
rfemur -16.975 3.87423 21.214
rtibia 66.2425
rfoot -7.09648 7.05886
rtoes -19.8955
lfemur 11.8276 9.13254 -16.1294
ltibia 23.6022
lfoot -28.205 22.7083
ltoes -16.5427
252
root 23.5939 16.1506 45.9202 170.31 -50.9067 -176.687
lowerback -13.251 0.075108 -1.07274
upperback -2.45901 0.194936 -6.17415
thorax 4.85829 -0.0460198 -5.91895
lowerneck -14.8891 -8.52115 -7.78087
upperneck 1.57446 -12.4622 20.6773
head 4.85603 -5.6207 6.53199
rclavicle 2.62396e-014 1.90833e-014
rhumerus -32.5652 46.9174 -95.9662
rradius 75.2076
rwrist -11.7119
rhand 20.3841 -11.4388
rfingers 7.12502
rthumb 44.8928 -34.9805
lclavicle 2.62396e-014 1.90833e-014
lhumerus -32.7705 -12.2371 75.2399
lradius 30.4506
lwrist 7.59573
lhand -13.021 -4.12799
lfingers 7.12502
lthumb 13.0729 25.4423
rfemur -18.9615 5.01159 20.7118
rtibia 69.0994
rfoot -3.76643 8.38802
rtoes -18.0104
lfemur 12.4553 9.25963 -16.4782
ltibia 22.7264
lfoot -28.0867 22.4953
ltoes -16.0506
253
root 23.5892 16.1581 45.9113 170.808 -50.7133 -177.341
lowerback -12.8267 -0.229406 -1.36462
upperback -2.34583 -0.179998 -6.17861
thorax 4.70859 -0.234656 -5.81067
lowerneck -14.8188 -8.53293 -7.70879
upperneck 1.1334 -12.4681 20.8222
head 4.7207 -5.657 6.56986
rclavicle -1.65389e-013 -2.38542e-014
rhumerus -31.984 46.6356 -95.6339
rradius 76.0984
rwrist -11.5512
rhand 20.1911 -11.2645
rfingers 7.12502
rthumb 44.713 -34.8762
lclavicle -1.65389e-013 -2.38542e-014
lhumerus -32.432 -12.2097 75.2298
lradius 29.5611
lwrist 7.22555
lhand -12.641 -4.19337
lfingers 7.12502
lthumb 13.4392 25.3531
rfemur -20.9899 6.02811 20.1754
rtibia 71.9468
rfoot -0.685042 9.5471
rtoes -16.1783
lfemur 13.0654 9.36138 -16.8492
ltibia 21.8363
lfoot -27.885 22.2614
ltoes -15.6594
